<?xml version="1.0" encoding="UTF-8"?> <svg xmlns="http://www.w3.org/2000/svg" version="1.1" id="Layer_1" x="0" y="0" viewBox="0 0 908 350" style="enable-background:new 0 0 908 350" xml:space="preserve"><style>.st0{fill:#2e2f7a}.st1{fill:#64af45}.st2{fill:#2e2f7a;stroke:#fff;stroke-width:7.838594e-02;stroke-miterlimit:10}.st4{fill:#2d3078}</style><path class="st0" d="M783.4 251.9h6.1v6.1h-6.1v-6.1zM814.1 238.7c-.7-3.6-3.2-5.7-7.1-5.7-6.8 0-8.9 5.4-8.9 11.2 0 5.2 2.4 10.4 8.3 10.4 4.5 0 7.2-2.7 7.8-7h4.8c-1 7-5.4 11.1-12.6 11.1-8.7 0-13.4-6.1-13.4-14.6 0-8.6 4.4-15.3 13.5-15.3 6.5 0 11.7 3 12.3 9.8h-4.7zM835.1 228.8c9.1 0 13.9 6.6 13.9 15 0 8.3-4.8 14.9-13.9 14.9-9.1 0-13.9-6.6-13.9-14.9 0-8.4 4.8-15 13.9-15zm0 25.8c4.9 0 8.9-3.9 8.9-10.8 0-7-4-10.8-8.9-10.8s-8.9 3.9-8.9 10.8 4 10.8 8.9 10.8zM851.5 229.5h4.4v4.2h.1c2.1-3.2 5.3-4.9 9.2-4.9 3.5 0 6.7 1.4 7.8 4.9 1.9-3 5.3-4.9 8.9-4.9 5.7 0 9.5 2.4 9.5 8.3V258h-4.7v-18.7c0-3.5-.9-6.4-5.5-6.4-4.5 0-7.5 2.9-7.5 7.3V258H869v-18.7c0-3.7-1.2-6.4-5.4-6.4-5.6 0-7.6 5.1-7.6 7.3V258h-4.7v-28.5z"></path><g><path class="st0" d="M39.6 258.5v-61.7H16.5v-8.3H72v8.3H48.8v61.7h-9.2zM76 258.5v-70h8.6v25.1c4-4.6 9.1-7 15.2-7 3.8 0 7 .7 9.8 2.2 2.8 1.5 4.7 3.5 5.9 6.1 1.2 2.6 1.8 6.4 1.8 11.4v32.1h-8.6v-32.1c0-4.3-.9-7.4-2.8-9.4s-4.5-2.9-7.9-2.9c-2.5 0-4.9.7-7.2 2-2.2 1.3-3.8 3.1-4.8 5.4s-1.4 5.4-1.4 9.4v27.7H76zM160.6 242.2l8.9 1.1c-1.4 5.2-4 9.2-7.8 12.1-3.8 2.9-8.6 4.3-14.5 4.3-7.4 0-13.3-2.3-17.6-6.8-4.3-4.6-6.5-11-6.5-19.2 0-8.5 2.2-15.1 6.6-19.9 4.4-4.7 10.1-7.1 17.1-7.1 6.8 0 12.3 2.3 16.6 6.9 4.3 4.6 6.4 11.1 6.4 19.5v2.3H132c.3 5.6 1.9 9.8 4.7 12.8 2.8 3 6.4 4.4 10.6 4.4 3.2 0 5.8-.8 8.1-2.5 2.2-1.7 3.9-4.3 5.2-7.9zm-28.2-13.9h28.3c-.4-4.3-1.5-7.5-3.2-9.6-2.7-3.3-6.3-5-10.6-5-3.9 0-7.3 1.3-10 4-2.7 2.6-4.2 6.1-4.5 10.6z"></path><path class="st1" d="M176.6 188.5h21.6v52.7H232v17.2h-55.4v-69.9zM292.4 238h-38.9c.4 3.1 1.2 5.4 2.5 7 1.9 2.2 4.3 3.3 7.4 3.3 1.9 0 3.7-.5 5.4-1.4 1.1-.6 2.2-1.7 3.4-3.2l19.1 1.8c-2.9 5.1-6.5 8.7-10.6 11-4.1 2.2-10.1 3.3-17.8 3.3-6.7 0-12-.9-15.8-2.8-3.9-1.9-7-4.9-9.6-9-2.5-4.1-3.8-9-3.8-14.5 0-7.9 2.5-14.3 7.6-19.2 5.1-4.9 12.1-7.4 21-7.4 7.3 0 13 1.1 17.2 3.3 4.2 2.2 7.4 5.4 9.6 9.5 2.2 4.2 3.3 9.6 3.3 16.3v2zm-19.8-9.3c-.4-3.8-1.4-6.4-3-8.1-1.6-1.6-3.8-2.4-6.5-2.4-3.1 0-5.6 1.2-7.4 3.7-1.2 1.5-1.9 3.8-2.2 6.8h19.1zM314.6 224.2l-18.6-2c.7-3.2 1.7-5.8 3-7.7 1.3-1.9 3.2-3.5 5.7-4.8 1.8-1 4.2-1.7 7.4-2.3 3.1-.5 6.5-.8 10.1-.8 5.8 0 10.5.3 14 1s6.5 2 8.8 4.1c1.7 1.4 3 3.5 3.9 6.1 1 2.6 1.4 5.1 1.4 7.5v22.4c0 2.4.2 4.3.5 5.6.3 1.4 1 3.1 2 5.2h-18.2c-.7-1.3-1.2-2.3-1.4-3-.2-.7-.4-1.8-.7-3.2-2.5 2.4-5.1 4.2-7.6 5.2-3.4 1.4-7.4 2.1-12 2.1-6 0-10.6-1.4-13.8-4.2-3.1-2.8-4.7-6.3-4.7-10.4 0-3.8 1.1-7 3.4-9.5s6.4-4.3 12.5-5.5c7.3-1.5 12-2.5 14.2-3.1 2.2-.6 4.5-1.4 6.9-2.3 0-2.4-.5-4.1-1.5-5-1-1-2.7-1.4-5.2-1.4-3.2 0-5.6.5-7.2 1.5-1.1.8-2.1 2.3-2.9 4.5zm16.9 10.2c-2.7 1-5.5 1.8-8.4 2.5-3.9 1.1-6.4 2.1-7.5 3.1-1.1 1.1-1.6 2.2-1.6 3.6 0 1.5.5 2.8 1.6 3.7 1.1 1 2.6 1.5 4.7 1.5 2.2 0 4.2-.5 6-1.6 1.9-1.1 3.2-2.3 4-3.8.8-1.5 1.2-3.5 1.2-5.9v-3.1zM411.1 188.5v70h-18.2V251c-2.5 3.2-4.9 5.3-7 6.4-2.8 1.5-5.9 2.2-9.4 2.2-6.9 0-12.2-2.6-15.8-7.9-3.6-5.3-5.5-11.6-5.5-19.1 0-8.4 2-14.8 6-19.3s9.1-6.7 15.3-6.7c3 0 5.8.5 8.2 1.5 2.5 1 4.7 2.5 6.6 4.6v-24.2h19.8zM391.6 233c0-4-.8-6.9-2.5-8.9s-3.8-2.9-6.4-2.9c-2.3 0-4.2.9-5.7 2.8s-2.3 5-2.3 9.5c0 4.1.8 7.2 2.4 9.1 1.6 1.9 3.5 2.9 5.8 2.9 2.5 0 4.5-1 6.2-2.9 1.7-2 2.5-5.2 2.5-9.6zM419.2 188.5h19.4v13.2h-19.4v-13.2zm0 19.3h19.4v50.7h-19.4v-50.7zM446.7 207.8h18.1v8.3c2.7-3.4 5.4-5.8 8.2-7.2 2.8-1.4 6.1-2.2 10.1-2.2 5.4 0 9.6 1.6 12.6 4.8 3 3.2 4.6 8.1 4.6 14.8v32.2h-19.5v-27.9c0-3.2-.6-5.4-1.8-6.8-1.2-1.3-2.8-2-5-2-2.4 0-4.3.9-5.7 2.7-1.5 1.8-2.2 5-2.2 9.6v24.3h-19.4v-50.6zM542.8 207.8H561v50.1c0 3.2-.7 6.2-2 9.1-1.4 2.9-3.2 5.2-5.4 7-2.2 1.8-5.1 3.1-8.5 3.9-3.5.8-7.4 1.2-11.9 1.2-10.2 0-17.2-1.5-21-4.6-3.8-3.1-5.7-7.1-5.7-12.3 0-.6 0-1.5.1-2.6l18.9 2.1c.5 1.7 1.2 3 2.2 3.6 1.4 1 3.2 1.5 5.4 1.5 2.8 0 4.9-.7 6.3-2.2 1.4-1.5 2.1-4.1 2.1-7.8v-7.7c-1.9 2.3-3.8 3.9-5.7 4.9-3 1.6-6.2 2.4-9.7 2.4-6.8 0-12.3-3-16.4-8.9-3-4.2-4.4-9.8-4.4-16.7 0-7.9 1.9-13.9 5.7-18 3.8-4.1 8.8-6.2 15-6.2 3.9 0 7.2.7 9.8 2 2.6 1.3 5 3.5 7.2 6.6v-7.4zm-18.3 24.6c0 3.7.8 6.4 2.3 8.1 1.6 1.8 3.6 2.6 6.2 2.6 2.4 0 4.4-.9 6.1-2.7 1.6-1.8 2.5-4.6 2.5-8.3s-.9-6.5-2.6-8.5c-1.7-2-3.8-2.9-6.3-2.9s-4.5.9-5.9 2.7c-1.6 1.8-2.3 4.8-2.3 9z"></path><path class="st0" d="M569.6 188.5h21.6v52.7h33.7v17.2h-55.4v-69.9zM629.8 188.5h19.4v13.2h-19.4v-13.2zm0 19.3h19.4v50.7h-19.4v-50.7zM657.2 207.8h18.1v8.3c2.7-3.4 5.4-5.8 8.2-7.2 2.8-1.4 6.1-2.2 10.1-2.2 5.4 0 9.6 1.6 12.6 4.8 3 3.2 4.6 8.1 4.6 14.8v32.2h-19.5v-27.9c0-3.2-.6-5.4-1.8-6.8-1.2-1.3-2.8-2-5-2-2.4 0-4.3.9-5.7 2.7-1.5 1.8-2.2 5-2.2 9.6v24.3h-19.4v-50.6zM718 188.5h19.9v36.1l14.5-16.8h23.9l-18.2 17.8 19.2 32.9h-21.9l-10.3-20.3-7.3 7.1v13.2H718v-70z"></path></g><g><path class="st2" d="M384.1 90.5c3.3 22-1.7 45.1-14.1 63.7-3.1 4.6-6.6 9.1-10.6 13.1-3.9 4.1-8.2 7.7-12.9 11-9.3 6.6-19.9 11.4-31.3 14.1-11.3 2.7-23.4 3.3-35.2 1.4-5.9-.9-11.8-2.5-17.4-4.6-5.7-2.2-11.1-4.9-16.3-8.1-5.2-3.3-10-7.1-14.4-11.4-4.4-4.3-8.4-9.1-11.8-14.3-3.5-5.2-6.3-10.7-8.6-16.5-2.3-5.8-3.9-11.8-5-17.9-1-6.1-1.5-12.4-1.3-18.6.2-6.2 1.1-12.4 2.5-18.5 2.9-12.1 8.3-23.5 15.8-33.3 7.4-9.8 16.8-18.1 27.3-24.1 10.6-6 22.3-9.8 34.1-11.2 11.8-1.4 23.8-.4 35 2.8 11.3 3.1 21.7 8.5 30.7 15.5s16.6 15.7 22.3 25.4c5.8 9.8 9.6 20.5 11.2 31.5zm-.8.2c-1.1-5.4-2.7-10.7-4.7-15.8-2.1-5.1-4.7-9.9-7.8-14.4-6.1-9-14.1-16.7-23.2-22.5-9.1-5.8-19.2-9.6-29.6-11.4a80.7 80.7 0 0 0-31 1c-20.1 4.6-37.5 17.3-48.2 33.8-5.4 8.3-9.2 17.5-11.2 27-1 4.8-1.5 9.6-1.6 14.5-.1 4.9.3 9.7 1.1 14.5.8 4.8 2.1 9.5 3.7 14.1s3.8 9 6.2 13.2c2.5 4.2 5.4 8.2 8.6 11.9 3.2 3.7 6.8 7.2 10.7 10.3 3.9 3.1 8.1 5.9 12.6 8.3 4.4 2.4 9.2 4.4 14.1 5.9 9.8 3 20.3 4.2 30.9 3.1 10.5-1 21-4.2 30.4-9.5 4.7-2.6 9.2-5.8 13.3-9.4 4.1-3.6 7.9-7.6 11.2-12 6.6-8.8 11.4-19 13.9-29.8 2.6-10.7 2.7-22 .6-32.8z"></path><path class="st2" d="M275.3 176.6c-9-3.8-17.2-9.1-24.2-15.9-7-6.7-12.6-14.8-16.6-23.7-2-4.4-3.6-9-4.8-13.8-1.2-4.7-1.9-9.6-2.2-14.6-.6-9.9.7-20 3.9-29.6 3.2-9.6 8.3-18.8 15.2-26.7 6.9-7.9 15.5-14.5 25.2-19.1 9.7-4.6 20.4-7.2 31.3-7.4 10.8-.3 21.8 1.8 31.8 5.8 5 2 9.8 4.6 14.3 7.6s8.7 6.4 12.5 10.2c3.8 3.8 7.2 8 10.1 12.5 2.9 4.5 5.4 9.3 7.4 14.2 2 5 3.4 10.1 4.3 15.3.9 5.2 1.3 10.5 1.1 15.8-.3 10.5-2.8 21-7.2 30.4-4.4 9.4-10.6 17.9-18.2 24.8-7.6 6.9-16.4 12.2-25.9 15.7-4.7 1.7-9.6 3-14.5 3.8-4.9.8-9.9 1.2-14.8 1-4.9-.2-9.9-.8-14.6-1.9-5-1-9.6-2.5-14.1-4.4l.3-.7c9 3.5 18.8 4.8 28.3 4.4 4.8-.2 9.5-.9 14.1-2.1 4.6-1.2 9.1-2.8 13.3-4.8 8.5-4 16.1-9.7 22.2-16.6 6.1-6.8 10.8-14.8 13.8-23.3 2.9-8.5 4.3-17.4 3.8-26.2-.2-4.4-.9-8.7-2-12.9-1.1-4.2-2.5-8.3-4.3-12.2-1.8-3.9-4-7.6-6.5-11.1s-5.4-6.7-8.5-9.6c-3.1-2.9-6.5-5.6-10.1-7.8-3.6-2.3-7.4-4.2-11.4-5.8-15.9-6.3-34-6.6-50.6-.7-8.3 2.9-16.1 7.4-22.9 13.2-6.8 5.8-12.6 13.1-16.8 21.4-4.1 8.3-6.7 17.5-7.1 26.9-.3 4.7.1 9.5.8 14.2.8 4.7 2.1 9.3 3.9 13.8 1.8 4.4 4 8.7 6.7 12.7s5.8 7.7 9.2 11.1c6.9 6.8 15.1 12.1 24.1 15.6l-.3.5z"></path><path class="st1" d="M366.9 97.8c4.6 14.1 3.8 29.7-2.3 43.3-1.5 3.4-3.4 6.7-5.5 9.7-2.1 3.1-4.6 6-7.3 8.6-5.4 5.3-11.8 9.7-19 12.7-7.1 3-14.9 4.7-22.9 4.8-4 0-8-.3-11.9-1.1-3.9-.8-7.8-1.9-11.6-3.5-7.5-3.1-14.4-7.9-20-13.9-2.8-3-5.3-6.3-7.5-9.9-2.1-3.5-3.9-7.3-5.3-11.2-1.3-3.9-2.3-8-2.9-12.1-.6-4.1-.6-8.3-.4-12.4.6-8.2 2.9-16.3 6.7-23.6 3.8-7.3 9.1-13.7 15.3-18.7 6.3-5.1 13.5-8.8 21.1-11 7.6-2.2 15.6-2.9 23.3-2 7.7.8 15.2 3.2 21.9 6.8 6.7 3.6 12.6 8.4 17.4 14.2 4.9 5.7 8.6 12.3 10.9 19.3zm-.6.2a59.3 59.3 0 0 0-4.8-9.8c-1.9-3.1-4.2-6-6.7-8.6-5-5.2-11.1-9.4-17.7-12.2-6.6-2.8-13.7-4.2-20.7-4.2s-13.9 1.4-20.2 4.1c-12.7 5.2-22.7 15.4-28 27.4-2.6 6-4.1 12.5-4.4 18.9-.3 6.5.7 12.9 2.9 19 1 3.1 2.4 6 4 8.8 1.6 2.8 3.5 5.5 5.5 8 4.2 5 9.3 9.2 15.1 12.4 2.9 1.6 6 3 9.1 4 3.2 1.1 6.5 1.9 9.9 2.3 6.8.9 13.8.5 20.6-1.3 6.8-1.9 13.3-5 18.9-9.5 2.8-2.2 5.4-4.8 7.7-7.6s4.3-5.8 6-9.1c3.4-6.5 5.4-13.7 5.9-21 .6-7.3-.5-14.7-3.1-21.6z"></path><path d="M295.3 162.5c-5.8-2.8-11.1-6.6-15.5-11.3-4.4-4.7-7.9-10.2-10.3-16.2-2.4-6-3.7-12.5-3.8-19-.1-6.6 1-13.2 3.4-19.5 2.4-6.3 6-12.2 10.8-17.3 4.7-5 10.6-9.1 17.1-11.9 6.5-2.7 13.7-4.2 20.8-4 7.2.1 14.3 1.8 20.8 4.8 3.3 1.5 6.4 3.3 9.3 5.4 2.9 2.1 5.6 4.5 8 7.2 2.4 2.6 4.5 5.5 6.3 8.6 1.8 3.1 3.3 6.3 4.5 9.7 2.3 6.7 3.3 13.8 2.7 20.8-.5 7-2.5 13.8-5.7 19.9-3.2 6.1-7.5 11.5-12.7 15.9-5.2 4.3-11.2 7.6-17.5 9.6-3.2 1-6.4 1.7-9.7 2.1-3.3.4-6.6.5-9.8.2-6.6-.4-12.9-2.3-18.7-5l.2-.4c5.9 2.6 12.2 3.8 18.5 3.8 3.2 0 6.3-.3 9.4-.9 3.1-.6 6.1-1.6 8.9-2.8 5.7-2.4 10.9-5.9 15.1-10.3 4.3-4.3 7.6-9.5 9.8-15 2.2-5.5 3.3-11.4 3.2-17.3-.1-5.8-1.2-11.6-3.4-16.9-1.1-2.6-2.5-5.2-4-7.6-1.6-2.4-3.4-4.6-5.3-6.6-2-2-4.1-3.9-6.5-5.5-2.3-1.6-4.8-3-7.4-4.2-10.4-4.6-22.3-5.4-33.4-2-5.5 1.7-10.8 4.4-15.5 8-4.7 3.7-8.7 8.3-11.7 13.7-3 5.4-4.9 11.4-5.5 17.7-.3 3.1-.2 6.3.2 9.4.4 3.1 1.1 6.3 2.2 9.3 2.1 6 5.5 11.6 9.8 16.3 4.3 4.7 9.7 8.5 15.5 11l-.1.3z" style="fill:#64af45;stroke:#fff;stroke-width:.1568;stroke-miterlimit:10"></path><path class="st1" d="M335.9 151.5c3.2-1.9 5.9-4.4 8.2-7.5 2.2-3 3.9-6.5 4.8-10.2 1.9-7.4.6-15.7-3.5-22.5-2.1-3.4-4.8-6.4-8.1-8.8-3.3-2.4-7-4.1-11-5.1s-8.2-1.2-12.3-.5c-4.1.6-8.2 2.1-11.8 4.3l-.4-.5c3.5-2.6 7.5-4.5 11.8-5.5 4.3-1.1 8.8-1.3 13.2-.6 4.4.7 8.8 2.2 12.6 4.6 3.9 2.4 7.3 5.5 10.1 9.2 2.7 3.7 4.7 8 5.8 12.6 1.1 4.6 1.3 9.4.6 14.1-.7 4.7-2.4 9.3-4.9 13.4-2.5 4.1-5.9 7.8-9.9 10.7l-5.2-7.7z"></path></g><g><path class="st4" d="M483.9 325.1c-1.1-.8-2-1.9-2.5-3.2-.6-1.8-1-3.9-1-6.4 0-2.4.1-4.4.4-6.1.3-1.7.8-3.4 1.5-5.1l.5-1.3c.6-1.7 1.1-2.7 1.4-3.3.7-1.6 1.9-3.6 3.6-6.1 1.6-2.4 2.9-4.2 3.8-5.4.9-1.2 1.9-2.2 2.9-3.1 1-.9 2.5-2 4.4-3.3 1.2-.8 2.6-1.3 4.3-1.3 1.3 0 2.5.3 3.7 1 1.1.6 1.9 1.7 2.5 3 .4.7.6 1.6.6 2.8 0 1.9-.5 4-1.4 6.3-.9 2.3-2 4-3.3 5.1-.3.3-.7.4-1.1.4s-1-.1-1.6-.4c-.6-.3-1.1-.6-1.5-1-.4-.7-.6-1.1-.6-1.2 0-.1 0-.2.2-.2.4-.4.9-1.3 1.6-2.6.7-1.3 1.2-2.3 1.4-3l.4-1.7c.2-1 .4-1.7.4-2.1 0-.4-.1-.7-.4-1-.1-.1-.3-.2-.5-.2-.3 0-.9.2-1.7.6-.9.4-2 1.2-3.3 2.4-1.3 1.2-2.5 2.7-3.8 4.4-1.9 2.4-3.3 4.4-4.3 6-1 1.6-1.7 3.2-2.3 4.8l-.7 1.6c0 .2 0 .6-.2 1.2s-.3 1.2-.5 1.6c-.6 2.3-.8 4.5-.8 6.3 0 1.5.2 2.8.5 3.9s.7 1.9 1.3 2.4c.3.3.8.4 1.4.4.6 0 1.4-.2 2.2-.5.8-.3 1.7-.7 2.6-1.1.9-.4 1.6-.7 1.9-.8.9-.4 1.8-.8 2.6-1.3s1.4-.9 1.8-1.3c1-.8 1.9-1.1 2.5-1.1.5-.2.9 0 1.2.5.3.5.5 1.1.5 2 0 .6-.4 1.2-1.1 2s-1.7 1.5-2.7 2.1c-.4.4-1.4 1-3 1.6-1.3.9-2.8 1.8-4.5 2.5-1.7.7-3.3 1.1-4.7 1.1-.3 0-.7 0-1.2-.1-1.1-.3-2.3-1-3.4-1.8zM511 322.4c-.3-.2-.7-.5-1.2-.9-.8-.8-1.4-1.7-1.9-2.6-.4-.9-.6-1.7-.5-2.4.1-.3.2-.6.2-.8v-.5c-.2-.2-.2-.3-.2-.3 0-.1 0-.1.1-.2l.2-.2c.2 0 .3-.2.2-.7-.1-.3.1-1 .4-2.1.4-1.1.8-2.1 1.4-3 .4-.7 1.1-1.6 2-2.7.9-1.1 1.6-1.9 2.3-2.5 2-1.7 3.8-2.8 5.4-3.1.8-.2 1.6-.3 2.4-.3 1.2 0 2.1.3 2.7 1 .9.4 1.5.9 1.9 1.6.4.7.7 1.6.8 2.7 0 .2.1.6.1 1.2 0 3-1.1 6.1-3.4 9.3-.9 1.3-1.9 2.4-2.8 3.2-.9.8-2.1 1.6-3.4 2.4-.7.5-1.5.8-2.3 1-.8.2-1.9.3-3.3.4-.4-.3-.8-.4-1.1-.5zm9-9.2c.3-.7.8-1.9 1.5-3.7.2-.4.4-1.1.4-2.2 0-1-.1-1.5-.4-1.6-.2-.2-.4-.2-.7-.2-.4 0-.9.3-1.8.8-1.4 1.2-2.6 2.5-3.5 3.8-.9 1.3-1.6 2.8-2 4.5 0 .2-.1.4-.1.7 0 1.4.5 2.1 1.5 2.1.9 0 2.1-.7 3.5-2.1.7-.7 1.2-1.4 1.6-2.1zM545.9 321.5v-4.2c0-.8.1-1.5.2-2.2.1-.9.1-1.5.1-1.9v-1c-.1-.8-.4-1.2-.8-1.2-.7 0-2.1.7-4 2.1-2 1.4-4 3.1-6.1 5-.6.7-1.2 1.3-1.6 1.9-.4.5-.7.8-.9 1-.2.1-.5.2-1 .2-.6-.1-1.2-.5-1.9-1.3s-1.2-1.5-1.5-2.1c0-1.1.2-2.2.6-3.2.4-1 1-2.3 1.8-3.9.4-1.2.8-2.4 1.4-3.6.6-1.4 1-2.5 1.3-3.2.3-.7.4-1.5.5-2.3 0 0 0-.1-.1-.1 0-.2.1-.3.2-.4.1-.1.3-.2.4-.2.1-.1.3-.2.7-.2 1 0 2 .3 2.7.8.8.6 1.1 1.4 1.1 2.6 0 .6-.1 1.2-.3 1.7-.2.5-.6 1.4-1.2 2.7l-.7 1.3c-.1.2-.3.6-.5 1.1-.2.5-.4.8-.4.9 1-.7 2.2-1.6 3.6-2.7 2-1.6 3.7-2.9 5-3.7 1.3-.9 2.2-1.3 2.8-1.3.5 0 1.3.3 2.2.9.9.6 1.5 1.1 1.7 1.6 0 .3 0 .7-.1 1.3-.1.6-.1 1.1-.2 1.5l.1 1.9c0 .3.1.8.1 1.4 0 1.3-.1 2.2-.2 2.7 0 0 .1.1.1.2s.1.1.1.2l-.1.1c0 .4.3 1 .7 1.9.4.9.6 1.4.6 1.5 0 .4-.3.9-.9 1.5-.6.5-1.1.9-1.7.9-2.6-.2-3.8-.2-3.8-.2zM577.5 313.9c-.1.4-.3 1.1-.5 2.3-.3 1.2-.4 2.1-.5 2.7 0 .4.1.9.3 1.4.2.5.3.7.3.8 0 .4-.2.8-.5 1.2-.4.4-.8.6-1.4.6-1 0-1.9-.4-2.6-1.3-.7-.9-1.1-2-1.1-3.4 0-1.2.4-3.5 1.3-6.8.1-.4.2-.8.2-1 .1-.2.1-.4.1-.6 0-.2-.1-.3-.2-.3-.3 0-.7.2-1.2.6-.5.4-1.1.8-1.7 1.3l-1.5 1.3c-.6.4-2 1.5-4 3.3-.3.2-1 .8-2 1.7-1.1.9-1.7 1.4-1.8 1.4-.2 0-.5-.1-1.1-.4-.5-.3-1-.6-1.5-1s-.7-.9-.7-1.4c0-.6.4-2 1.1-4.2.7-2.2 1.6-4.3 2.6-6.4.1-.3.3-.9.4-1.8.2-1.5.4-2.4.8-2.7.2-.4.6-.6 1-.6.8 0 1.6.4 2.3 1.2.7.8 1.1 1.7 1.1 2.7 0 .7-.2 1.6-.6 2.7-.4 1.1-.7 1.8-.8 2 .1-.1.4-.3.8-.6s.9-.7 1.5-1.1c1.4-1 2.4-1.8 3.1-2.1.7-.4 1.2-.7 1.5-.9.2-.1.3-.2.4-.3.1-.1.2-.1.2-.1.1 0 .4-.1.7-.3.3-.1.6-.2.8-.2.6 0 1.2.2 1.9.6.7.4 1 .9 1 1.3 0 .1.1.3.4.6.3.3.5.7.7 1.1.2.4.3 1.1.3 1.9-.2.4-.5 2.1-1.1 4.8zM581.9 316.3c0-1.9.5-4 1.4-6.4.9-2.4 2.1-4.6 3.6-6.5 1.4-1.9 2.8-3.2 4.3-3.8.8-.4 1.7-.6 2.7-.6 1.8 0 3.4.4 4.7 1.2 1.3.8 2 2.3 2 4.4 0 1.2-.4 2.6-1.3 4.1-.8 1.5-1.9 2.7-3.2 3.8-1.3 1-2.5 1.5-3.7 1.5-1.8 0-3.3-.6-4.6-1.8-.7 1.4-1 2.7-1 3.9 0 1 .1 1.8.4 2.3.2.5.8.8 1.7.8.8 0 1.5-.1 2.1-.4.5-.2 1-.5 1.4-.8.4-.3.8-.6 1-.7l.2-.1h-.1c.7-.4 1.3-.7 1.6-.9.3-.2.6-.4.9-.5.6 0 1.2.2 1.7.5.5.4.8.8.8 1.3 0 .4-.4 1.1-1.1 2-.7.9-1.5 1.5-2.2 1.9l-.7.4h.1c-.4.5-.7.7-1.1.7h-.5c-.2.3-.7.6-1.6 1-.9.3-1.8.5-2.6.5-4.6 0-6.9-2.6-6.9-7.8zm12.8-8.2c.7-1 1.1-1.9 1.1-2.9 0-.4-.1-.8-.3-1.2-.2-.4-.5-.5-.9-.5-.7 0-1.4.3-2.3 1-.8.6-1.6 1.5-2.2 2.5l-.8 1.3c.2-.1.3-.1.4-.1.3 0 .6.1.7.4.2.3.3.5.5.7.2.2.5.3 1 .3 1.1 0 2.1-.5 2.8-1.5zM609.4 322.8c-.8 0-1.9-.2-3.1-.7-.2 0-.7-.4-1.6-1.2-.9-.8-1.5-1.4-1.7-1.8-.5-.7-.7-1.6-.7-2.7 0-1.9.7-4.6 2.1-7.9.4-.9 1.2-2.1 2.2-3.7 1-1.5 1.7-2.4 2.1-2.6.1 0 .4-.2.8-.3.4-.2.9-.4 1.5-.7.3-.1.9-.3 1.8-.5s1.5-.3 1.9-.3c.8 0 1.6.3 2.5.8.9.5 1.7 1.2 2.2 1.9.5.7.7 1.4.6 1.9 0 .2-.3.6-.7 1.4-.4.8-.7 1.3-1 1.5-.2.2-.5.3-.9.3-.5 0-1-.1-1.5-.4-.4-.3-.7-.7-.7-1.2-.1-.2-.3-.5-.8-.8-.4-.3-.7-.5-.9-.5-.3 0-.7.3-1.1.8s-1.1 1.3-1.8 2.3c-.8.8-1.3 1.6-1.6 2.4-.3.9-.5 1.7-.6 2.4-.1.7-.2 1.2-.3 1.4s-.1.5-.1.7c0 .4.1.8.2 1.2.2.4.3.6.5.6.7 0 1.9-.1 3.4-.5s2.9-.8 4.1-1.3c.6-.4 1.2-.5 1.8-.5.3 0 .6 0 .8.1.3.1.5.1.6.2.4.2.6.5.6 1.1 0 .5-.2 1.1-.5 1.6-.4.6-.9 1-1.5 1.4-.7.4-1.3.7-1.8 1.1-.5.4-.7.6-.7.8-.1 0-.2.1-.5.2-.2.1-.4.1-.5.1-.4 0-1.1.2-2.1.4-.9.2-1.5.4-1.8.6-.2.3-.7.4-1.2.4zM626.2 321.6c-.8-.9-1.3-1.7-1.5-2.3 0-.1 0-.2-.1-.3-.1-.1-.1-.2-.2-.2-.2-.1-.2-.8-.2-2 0-1 0-2 .2-3 .1-1 .2-1.9.4-2.5l1.1-3.2.8-2.4 1.6-3.5-2.4-.7c-.3 0-.5-.2-.7-.4-.2-.2-.3-.5-.3-.7 0-.3.2-.8.5-1.4.3-.6.6-.9.8-.9.1 0 .4.1 1 .1 1.2 0 2.1-.1 2.7-.2.4-.2.7-.5.8-1 .2-.4.4-.8.6-1.1.2-.3.4-.6.6-1 .1-.2.3-.6.6-1.1.3-.5.6-1.1 1-1.7.1-.1.3-.4.5-.9.3-.5.6-.9 1-1.2.2-.2.6-.4 1-.5.4-.1.8-.2 1.2-.2.7 0 1.3.2 1.8.6.4.6.5 1 .5 1.3 0 .3-.2.7-.5 1.3-.2.5-.6 1.1-1.2 1.9-.5.7-.8 1.3-1.1 1.8-.4.5-.6.9-.6 1.2 0 .3.3.4.8.4.6 0 1.5-.1 2.8-.4.2 0 .5-.1.8-.1 1 0 1.7.3 2.1.8.4.6.6 1.3.6 2.1 0 .6-.2.9-.6 1-.4.1-1.2.2-2.6.2-1.3.2-2.6.3-4 .3h-.8c-.3 0-.6.1-.9.2-.3.1-.6.2-.7.4-.1.2-.3.4-.5.8-.1.1-.4.6-.8 1.4-.6 1.2-.9 1.9-1.1 2.1-1 3.1-1.9 6.2-2.4 9.5 0 .2-.1.5-.1.9 0 .5.2.9.5 1.1.3.2 1 .3 2 .3 1.1 0 2.2-.1 3.2-.4 1.2-.5 2.1-1 2.7-1.3.4-.2.7-.4 1-.6.3-.2.5-.3.6-.4.2-.3.4-.3.8.1s.7.9.9 1.4c0 .7-.1 1.4-.4 2-.3.6-1 1.2-2.1 1.8-1.3.8-2.6 1.4-4 1.8-1.4.4-2.7.5-3.9.5-.7 0-1.3-.1-1.9-.2-.3-.1-1.1-.6-1.9-1.5zM644.2 320.7c-.5-.2-.8-.3-.9-.4 0-.1-.1-.3-.2-.6s-.2-.5-.2-.6c-.4-.2-.7-.4-.9-.8s-.3-.8-.2-1.2c.6-1 1.6-3.2 3.1-6.7s2.3-5.5 2.4-6c0-.9.3-1.5.8-1.9.3-.2.6-.3.8-.3.7 0 1.3.5 1.9 1.4.6.9.9 2 .9 3.3 0 .5-.5 1.9-1.4 4.1-.9 2.3-1.9 4.6-3.1 6.9-.6 1.3-1.1 2.1-1.4 2.5-.3.4-.7.6-1.1.6.3 0 0-.1-.5-.3zm7.3-23.5c-.7-.4-1.3-1-1.8-1.7s-.8-1.4-.8-2.1c0-.2.4-1 1.3-2.2.6-.8.8-1.2.8-1.4.3 0 .6.1 1.1.2.4.1.8.3 1.1.4.2.6.7 1.3 1.5 2.2.5.6.8 1.1 1.1 1.5.2.4.3.8.3 1.3 0 .9-.2 1.5-.7 2-.5.4-1.2.6-2.2.6-.4-.1-1-.3-1.7-.8zM675.8 313.9c-.1.4-.3 1.1-.5 2.3-.3 1.2-.4 2.1-.5 2.7 0 .4.1.9.3 1.4.2.5.3.7.3.8 0 .4-.2.8-.5 1.2-.4.4-.8.6-1.4.6-1 0-1.9-.4-2.6-1.3-.7-.9-1.1-2-1.1-3.4 0-1.2.4-3.5 1.3-6.8.1-.4.2-.8.2-1 .1-.2.1-.4.1-.6 0-.2-.1-.3-.2-.3-.3 0-.7.2-1.2.6-.5.4-1.1.8-1.7 1.3l-1.5 1.3c-.6.4-2 1.5-4 3.3-.3.2-1 .8-2 1.7-1.1.9-1.7 1.4-1.8 1.4-.2 0-.5-.1-1.1-.4-.5-.3-1-.6-1.5-1s-.7-.9-.7-1.4c0-.6.4-2 1.1-4.2.7-2.2 1.6-4.3 2.6-6.4.1-.3.3-.9.4-1.8.2-1.5.4-2.4.8-2.7.2-.4.6-.6 1-.6.8 0 1.6.4 2.3 1.2.7.8 1.1 1.7 1.1 2.7 0 .7-.2 1.6-.6 2.7-.4 1.1-.7 1.8-.8 2 .1-.1.4-.3.8-.6s.9-.7 1.5-1.1c1.4-1 2.4-1.8 3.1-2.1.7-.4 1.2-.7 1.4-.9.2-.1.3-.2.4-.3.1-.1.2-.1.2-.1.1 0 .4-.1.7-.3.3-.1.6-.2.8-.2.6 0 1.2.2 1.9.6.7.4 1 .9 1 1.3 0 .1.1.3.4.6.3.3.5.7.7 1.1.2.4.3 1.1.3 1.9-.1.4-.4 2.1-1 4.8zM683.3 334.3c-1.4-.7-2.6-1.5-3.4-2.6-.9-1-1.3-2.1-1.3-3.2 0-.3.2-.6.5-.7.3-.2.6-.2 1-.2.5 0 1 .1 1.4.2.4.1.6.3.6.4.7.6 1.4 1.1 2 1.5.7.3 1.2.5 1.7.5 1.3 0 2.4-1.6 3.1-4.8l.2-.8c1.2-5.3 2-8.5 2.4-9.6-.1 0-.3.1-.7.2l-1.5.7c-1.5.8-2.7 1.1-3.5 1.1l-.7-.1c-.4 0-1-.1-1.6-.4-.6-.3-1.2-.6-1.6-1-.5-.4-.8-1-.9-1.5-.1-.6-.2-1.3-.2-2.1 0-.7.3-1.9 1-3.4s1.6-3 2.8-4.4c1.2-1.2 2.9-2.3 5-3.4s3.8-1.7 5.1-1.7c.5 0 .9.1 1.2.4.8.2 1.5.6 2.3 1.4.8.7 1.4 1.7 1.9 2.8.5 1.1.8 2.3.8 3.6 0 .7-.2 1.1-.5 1.4 0 .5-.1.9-.3 1-.2.1-.4.3-.8.3s-.8.2-1.1.5c-.3.3-.6.9-.8 1.8l-.3 1.2c0 .1-.1.2-.3.5-.1.2-.3.6-.4 1-.1.4-.2.8-.2 1.2l-.2.7c-.3 1-.5 1.6-.5 1.7l-.2 1.2c-1.2 5.8-2.4 9.9-3.6 12.2-1.2 2.3-2.6 3.4-4 3.4-1.6 0-3-.3-4.4-1zm6.6-22.6c1.2-.6 2.3-1.5 3.3-2.5s1.7-2.1 2-3.3c.2-.6.2-.9.2-1 0-.5-.4-.7-1.1-.8h-.3c-1.1 0-2.7.6-4.7 1.9-.6.8-1.1 1.3-1.5 1.5-.3.2-.5.2-.5.2-.2.3-.4.6-.6 1-.2.3-.4.6-.5.7-.6.7-.9 1.4-.9 2 0 .4.2.7.5.9.3.1.8.3 1.5.3.6.1 1.4-.2 2.6-.9zM720.6 320.7c-.3-.3-.5-.6-.6-.8-.1-.2-.1-.4 0-.6.5 0 .8-.1.8-.2s.1-.2.2-.2h.5c1 .1 2.5-.5 4.4-1.7 1.9-1.2 3.9-2.8 6.1-4.8 1.1-1.4 1.9-2.5 2.3-3.1.4-.6.6-1.1.6-1.5 0-.2-.1-.5-.3-.9-.2-.3-.5-.5-1-.5-.7 0-1.7.4-3 1.2-1.7 1.1-3.1 2.1-4.2 3-1 .9-2 2-2.9 3.2-.5.7-1 1.3-1.5 1.8s-.8.9-.9 1.1c0 .2-.2.4-.7.6-.5.2-.9.4-1.2.4-.2-.1-.4-.2-.7-.5-.3-.2-.4-.5-.5-.8-.1-.1-.3-.2-.5-.4-.3-.2-.5-.4-.6-.6s-.2-.5-.2-.8c0-.6.2-1.6.6-3.1.4-1.7.8-3.3 1.2-4.9.5-1.6.8-2.5.9-2.7 0-.1.1-.3.3-.7.1-.4.2-.7.2-1.1.1-.4.2-.8.4-1.2.2-.5.3-.7.3-.8.2-.2.8-1.8 1.9-4.8 0-.2.4-1.2 1.3-3.2 1.3-3 2.1-5 2.4-5.8.2-.3.5-.9 1-1.8.1-.1.3-.4.5-.8.3-.4.5-.7.6-.8.3-.1.9.1 1.8.6s1.6.9 1.8 1.4c0 .1.1.2.2.3.1.1.1.2.1.3 0 .2-.1.6-.3 1.1-.2.5-.5 1.1-.7 1.6-.3.5-.5 1-.6 1.2l-1.8 3.6c-1.7 3.7-3.1 7.3-4.4 10.8-.4 1.1-.7 2-1 2.7l-.3 1.3 1.6-1.8c.7-.7 1.6-1.5 2.7-2.2.5-.3 1.2-.7 2.1-1.1.9-.4 1.6-.6 1.9-.7 1.3-.3 2.4-.5 3.3-.5 1.5 0 2.9 1.1 4.1 3.2.4.6.5 1.5.5 2.5 0 .7-.1 1.5-.3 2.2s-.5 1.4-.8 1.9l-.6.6c-.2.3-.3.5-.3.6 0 .2-.4.8-1 1.6s-1.3 1.7-2.1 2.5c-1 1.1-2.4 2.2-4.1 3.3-1.7 1.1-3.1 1.8-4.3 2.2-.2 0-.7.1-1.4.2s-1.1.2-1.4.3c-.9-.1-1.9-.7-2.4-1.9zM754.5 321.5c-.2-.6-.5-1.5-.8-2.7-.1-.2-.1-.6-.1-1.1v-1l-.6 1.2c-.2.4-.5.7-.7.9-.9.9-1.9 1.6-2.8 2.1-1.3.8-2.4 1.2-3.3 1.2-1.1 0-2.1-.5-2.9-1.6-1.3-1-1.9-2.3-1.9-3.7 0-.2 0-.6.1-1.1.1-1.5.3-2.9.6-4.3s1-3.1 2-5.3l1.8-3.6 1-1.9c.2-.1.5-.1 1-.1.6 0 1.2.1 1.8.4.6.2.9.6.9 1 .1.2.2.5.2.9 0 1.3-.5 3-1.6 5.1l-.5 1.1c-.7 1.7-1.2 3.1-1.6 4-.3 1-.5 1.8-.5 2.4 0 .6.2 1.1.7 1.3.2.1.4.2.7.2.8 0 1.8-.6 2.9-1.9 1.1-1.2 2.3-3.3 3.5-6.3.6-1.4.9-2.8 1-4.2-.1-.4 0-.9.4-1.5.3-.5.7-.9 1.3-1.3.2-.2.4-.4.7-.6.3-.1.5-.1.5 0l1-.1c.1 0 .3.1.6.5s.5.6.6.7c.4.3.6 1 .6 1.9 0 1.3-.5 3.2-1.5 5.5-.8 1.6-1.3 2.9-1.5 3.7-.3.9-.4 1.7-.5 2.5 0 .8.1 1.5.2 2s.5.9 1.1 1.4c.6.4.9 1.5.8 3.1-.1.3-.3.5-.7.7-.4.2-.8.2-1.3.2-.9 0-1.6-.2-2.2-.6-.5 0-.8-.5-1-1.1zM764.7 322.6c-1.1-.6-2-1.3-2.6-2.1-.6-.9-1-1.7-1-2.6 0-.7.3-1 .8-1 .4.1.8.3 1.3.7.6.4 1.1.6 1.5.8.4.2.9.3 1.3.3.7 0 1.3-.1 1.8-.3.5-.2.8-.6.9-1 0-.2-.1-.5-.2-1.1l-.6-1.5c-.9-1.3-1.5-2.6-1.8-3.9-.3-1.3-.5-2.7-.6-4.4 0-.9.7-2 2-3.3 1.3-1.3 2.9-2.4 4.7-3.4 1.8-1 3.3-1.6 4.4-1.7 2.2 0 3.5.2 4 .5.6.4 1.1 1.2 1.6 2.2.5 1 .7 1.9.7 2.5 0 .3-.1.6-.4 1.1-.3.4-.4.7-.5.8l-.5.8-.4.9c-.1.2-.2.5-.4.9s-.3.6-.5.7c-.1.1-.4.1-.6.1-.7 0-1.3-.3-1.9-.9-.6-.6-.8-1.3-.8-2 0-.5.2-1 .5-1.6.4-.5.5-.8.5-.9 0-.2-.2-.2-.5-.2-.5 0-1.3.3-2.4.8-1.1.5-2.1 1.2-2.9 2.1-.8.9-1.3 1.8-1.3 2.9 0 .6.1 1.2.3 2 .2.7.5 1.4.8 1.8.3.3.8 1.3 1.4 2.9.6 1.6.9 2.9.9 3.8 0 1.4-.5 2.5-1.6 3.2-1.1.7-2.5 1.1-4.4 1.1-1.2-.2-2.4-.5-3.5-1zM784.6 321.5c-.7-1-1.1-2.3-1.3-3.7.2-1.5.3-2.6.4-3.3.4-2 1-4.3 1.7-7s1.1-4.2 1.2-4.4c.2-.4.5-.5 1-.5.4 0 .9.2 1.5.5.5.3 1 .8 1.4 1.4.3.4.5.9.5 1.5 0 .8-.4 2.6-1.2 5.3-.6 2-.9 3.4-1.1 4.3-.2.8-.2 1.8-.2 2.7-.2 1.8-.3 3.1-.5 3.7-.2.7-.4 1-.7 1-1.2 0-2-.5-2.7-1.5zm7.7-23.4c-.2 0-.4-.1-.8-.4-.4 0-.9-.4-1.6-1-.7-.6-1-1.1-1-1.3 0-.5 0-1.2.1-2.1s.4-1.7.7-2.4c.3-.7.8-1.1 1.4-1.1.3 0 .7.1 1.1.3.5.1 1 .3 1.6.6.8 1.5 1.1 2.8 1.1 3.9 0 1.6-.8 2.7-2.4 3.4 0 0-.1.1-.2.1zM810.7 320.7c-.6-.3-1.1-.8-1.5-1.4l-.3-.6c-.5-1.4-.7-2.7-.7-4V312c0-.4 0-.7-.1-.7-.3 0-1.7 1.3-4.2 3.9-1.7 1.8-3.2 3.2-4.5 4.2-1.3 1-2.1 1.5-2.6 1.5-.2 0-.5-.2-1.1-.5s-1-.5-1.1-.7c-.3-.3-.5-.6-.5-1-.1-.4-.1-1.2-.1-2.3 0-1.3.3-2.7.8-4.4.5-1.6 1.4-3.8 2.7-6.6.3-.6.6-1.2 1-2.1.9-2.1 1.8-3.5 2.6-4.4.3 0 .5 0 .7.1.5 0 1.1.3 1.8.7.7.4 1.1 1 1.3 1.8 0 .7-.1 1.4-.3 2.1-.2.7-.7 1.5-1.4 2.5-.4.6-1 1.9-1.8 3.9-.2.3-.5.8-.8 1.5-.3.7-.5 1-.5 1.1 0 0 .2 0 .4-.3l.6-.6 1.6-1.6c3.2-3.2 5.6-4.8 7.4-4.9.9 0 1.7.5 2.4 1.4.7.9 1 2 1 3.3 0 .2 0 .9-.1 2.1v3.4c.9-.2 1.6-.5 2.1-.7 1-.4 2.1-.6 3.1-.7-.1.7-.5 1.6-1.1 2.7-.7 1.1-1.4 2.1-2.3 3-.9.8-1.7 1.3-2.4 1.3-.8.2-1.5.1-2.1-.3zM821.6 320c-.6-1.1-.9-2.5-.9-4.3 0-.4 0-1.1.1-2.2 0-.3.1-.7.1-1.1 0-.7-.1-1.2-.2-1.5-.2-.3-.4-.7-.8-1.1l-.8-.8c-.4-.4-.6-.7-.6-.9v-.2c0-.3.1-.6.2-.9.1-.3.3-.6.4-.6.1 0 .4-.2.7-.4.4-.2.6-.3.8-.2.2 0 .4.1.8.3.3.2.5.4.5.5.2.5.9-.3 1.9-2.4.6-.8 1.3-1.7 2.3-2.5 1-.8 1.9-1.5 2.7-1.9.3-.1.9-.3 1.9-.5 1-.2 1.8-.3 2.3-.3.6 0 1.4.3 2.3.8.9.5 1.6 1.1 2.1 1.7.8.6 1.3 1.8 1.3 3.4 0 1-.2 1.9-.5 2.6-.2.6-1 1.5-2.4 2.7-1.4 1.2-2.6 2-3.5 2.4-.9.2-1.9.3-3 .3s-1.8-.1-2.2-.3c-.3-.2-.5-.1-.7.2s-.3 1-.5 2l-.1.6c0 .4.1.9.3 1.3.3.5.5.8.8 1 .2.2.6.3 1.1.3l.5-.1c.4 0 .9-.3 1.4-.7.5-.4 1.1-.9 1.8-1.6.7-.7 1.1-1.1 1.3-1.2.2-.4.7-.6 1.6-.6.4 0 .8.1 1.4.2.4.3.6.7.6 1.2 0 .7-.3 1.6-1 2.8-.2.4-.8 1.1-1.8 2.1s-1.8 1.6-2.4 2c-1.1.6-2.3.9-3.6.9-1 0-2.1-.2-3.1-.6-1.5-.4-2.4-1.2-3.1-2.4zm9.7-12c.5-.3 1.2-1 1.9-2 .3-1 .4-1.6.2-1.8-.2-.2-.5-.4-.8-.4-.4 0-.9.2-1.5.7-.4.1-1 .5-1.7 1.1-.7.6-1.3 1.2-1.8 1.8-.5.6-.6.9-.4 1.1-.1.1.1.2.6.3.5.1.9.1 1.2.1 1-.2 1.8-.5 2.3-.9zM844.4 323.9l-1.5-.6c-1-.4-1.9-.9-2.6-1.5-.7-.6-1.1-1.1-1.1-1.6s.2-.8.7-.9l.3-.2c.1 0 .2-.1.5-.1h.6c.2.1.4.1.6.1.3.1.7.2 1.3.2l1.6.2c.8 0 1.6-.1 2.3-.2.7-.2 1.1-.3 1.1-.5 0-.1-.2-.3-.5-.6s-.7-.4-1-.4c0-.2-.6-.7-1.9-1.6-.7-.5-1.3-1-2-1.6-.6-.5-.9-.9-.9-1.1l.1-.1v-.4c-.3 0-.5-.4-.8-1.1-.2-.8-.4-1.5-.4-2.2 0-1.4.6-2.9 1.8-4.5 1.2-1.7 2.7-3.1 4.5-4.5 1.8-1.3 3.5-2.2 5.1-2.7.6-.3 1.5-.4 2.7-.4.8 0 1.3.1 1.6.2l.5-.1c.5 0 1.1.4 1.9 1.2.8.8 1.2 1.5 1.5 1.9 0 1.3 0 2.4-.1 3.2-.1.8-.3 1.2-.6 1.2 0 0-.1 0-.2.1-.1 0-.1.1-.1.3 0 .6-.5 1.2-1.5 1.9s-1.9 1-2.7 1l-.2-.1c-.2 0-.6-.3-1.1-.7-.5-.4-.7-.9-.7-1.3 0-.1.2-.4.7-1 .5-.5.9-1 1.2-1.5s.5-1 .5-1.6c0-.2-.1-.3-.2-.4-.1-.1-.4-.1-.8-.1-2.2 1-3.8 2-4.8 2.8-.1.2-.2.4-.3.5-.1.1-.2.2-.4.2 0 0 0-.1-.1-.1s-.3.2-.8.7c-.4.5-.9 1-1.2 1.6-.4.6-.6 1.2-.7 1.7l-.1.2v.3c0 .1-.1.2-.1.5 0 .4.2.7.5 1.1.3.4 1 .9 1.9 1.6 1.8 1.4 3.1 2.4 3.7 3.1.7.7 1.1 1.3 1.2 1.8.4.7.5 1.4.5 1.9 0 1.4-.7 2.4-2.1 3.2-1.4.7-3.4 1.1-5.8 1.1-1.1-.1-1.6-.1-1.6-.1zM862.2 322.6c-1.1-.6-2-1.3-2.6-2.1-.6-.9-1-1.7-1-2.6 0-.7.3-1 .8-1 .4.1.8.3 1.3.7.6.4 1.1.6 1.5.8.4.2.9.3 1.3.3.7 0 1.3-.1 1.8-.3.5-.2.8-.6.9-1 0-.2-.1-.5-.2-1.1s-.4-1-.6-1.5c-.9-1.3-1.5-2.6-1.8-3.9-.3-1.3-.5-2.7-.6-4.4 0-.9.7-2 2-3.3 1.3-1.3 2.9-2.4 4.7-3.4 1.8-1 3.3-1.6 4.4-1.7 2.2 0 3.5.2 4 .5.6.4 1.1 1.2 1.6 2.2.5 1 .7 1.9.7 2.5 0 .3-.1.6-.4 1.1-.3.4-.4.7-.5.8l-.5.8-.4.9c-.1.2-.2.5-.4.9s-.3.6-.5.7c-.1.1-.4.1-.6.1-.7 0-1.3-.3-1.9-.9s-.8-1.3-.8-2c0-.5.2-1 .5-1.6.4-.5.5-.8.5-.9 0-.2-.2-.2-.5-.2-.5 0-1.3.3-2.4.8-1.1.5-2.1 1.2-2.9 2.1-.8.9-1.3 1.8-1.3 2.9 0 .6.1 1.2.3 2 .2.7.5 1.4.8 1.8.3.3.8 1.3 1.4 2.9.6 1.6.9 2.9.9 3.8 0 1.4-.5 2.5-1.6 3.2-1.1.7-2.5 1.1-4.4 1.1-1.2-.2-2.4-.5-3.5-1z"></path></g></svg> 